<svg xmlns="http://www.w3.org/2000/svg" width="20.85" height="22.895" viewBox="0 0 20.85 22.895"><g transform="translate(0 0)"><path d="M6.976,17.648H1.35a1.308,1.308,0,0,1-.957-.394A1.308,1.308,0,0,1,0,16.3V3.2a1.4,1.4,0,0,1,.349-.957c.232-.262.432-.394.6-.394H3.584V6.027h8.689V1.849h2.174A1.345,1.345,0,0,1,15.8,3.2V9.115c-.038-.033-.08-.069-.138-.116a2.609,2.609,0,0,0-1.7-.565,2.611,2.611,0,0,0-1.7.565,1.732,1.732,0,0,0-.693,1.384l-.162,5.88-.864-.078a1.713,1.713,0,0,0-.357-.039,1.563,1.563,0,0,0-.515.087,2.481,2.481,0,0,0-.753.419l-1.031.871-.914.123ZM9.722,5.5c-2.191,0-5.547-.019-5.58-.019V1.85H5.491A2.184,2.184,0,0,1,6.268.555,3.449,3.449,0,0,1,8.1,0,2.725,2.725,0,0,1,9.709.555a2.184,2.184,0,0,1,.776,1.294h1.19V5.48C11.668,5.493,11.011,5.5,9.722,5.5ZM8.1,1.309a.884.884,0,0,0-.9.9.9.9,0,1,0,1.8,0,.884.884,0,0,0-.9-.9Z" transform="translate(0)" fill="#fff"/><path d="M7.009,20.3c-.23,0,.057-.313-.146-.4a1.7,1.7,0,0,1-.528-.335L2.231,15.9l1.138-1.11a2.041,2.041,0,0,1,.64-.411,1.177,1.177,0,0,1,.742-.048l1.585.344V8.435a1.794,1.794,0,0,1,.589-1.358,2.025,2.025,0,0,1,1.442-.555,2.025,2.025,0,0,1,1.442.555A1.794,1.794,0,0,1,10.4,8.435l-.081,3.019h.528a.424.424,0,0,1,.183.038q.081.038.183.077l3.007,1.377a1.4,1.4,0,0,1,.721.679,1.457,1.457,0,0,1,.132.966l-.731,4.171a1.432,1.432,0,0,1-.569.909,1.7,1.7,0,0,1-1.056.354Zm6.924-6.184Z" transform="translate(5.749 2.598)" fill="#fff"/></g></svg>