<svg xmlns="http://www.w3.org/2000/svg" width="19.223" height="22" viewBox="0 0 19.223 22"><path d="M7.316,19.351A1.31,1.31,0,0,1,6,18.035V5.27a1.356,1.356,0,0,1,.34-.932q.34-.384.581-.384h4.43a2.192,2.192,0,0,1,4.3,0h4.43A1.31,1.31,0,0,1,21.4,5.27v5.4H20.08V5.27H17.756V8.122H9.641V5.27H7.316V18.035H12.8v1.316ZM13.9,5.183a.862.862,0,0,0,.877-.877.877.877,0,1,0-1.5.625A.849.849,0,0,0,13.9,5.183Z" transform="translate(-6 -2.2)" fill="#fff"/><path d="M7.377,19.674a1.678,1.678,0,0,1-1.148-.447L2.15,15.386,3.259,14.3a1.989,1.989,0,0,1,.624-.4,1.147,1.147,0,0,1,.723-.047l1.544.336V8.114a1.748,1.748,0,0,1,.574-1.324A1.974,1.974,0,0,1,8.129,6.25a1.974,1.974,0,0,1,1.406.541,1.748,1.748,0,0,1,.574,1.324v3.207h.515a.413.413,0,0,1,.178.037q.079.037.178.075l2.93,1.342a1.365,1.365,0,0,1,.7.662,1.42,1.42,0,0,1,.129.942l-.713,4.065a1.4,1.4,0,0,1-.554.886,1.661,1.661,0,0,1-1.03.345Zm-.158-1.119h5.563l.851-4.643h0l-3.623-1.7H8.921v-4.1A.708.708,0,0,0,8.7,7.574a.906.906,0,0,0-1.148,0,.708.708,0,0,0-.218.541v7.439l-3.049-.615-.455.429Zm0,0h0Z" transform="translate(4.451 2.326)" fill="#fff"/></svg>