<svg xmlns="http://www.w3.org/2000/svg" width="20.276" height="22" viewBox="0 0 20.276 22"><g transform="translate(0 0)"><path d="M6.784,17.162H1.313a1.272,1.272,0,0,1-.93-.383A1.272,1.272,0,0,1,0,15.849V3.112a1.359,1.359,0,0,1,.339-.93C.564,1.927.76,1.8.919,1.8H3.485V5.861h8.45V1.8H14.05a1.308,1.308,0,0,1,1.313,1.314V8.864c-.037-.032-.078-.067-.134-.112a2.537,2.537,0,0,0-1.651-.55,2.539,2.539,0,0,0-1.651.55,1.685,1.685,0,0,0-.674,1.346L11.1,15.816l-.84-.076a1.666,1.666,0,0,0-.347-.038,1.52,1.52,0,0,0-.5.085,2.412,2.412,0,0,0-.733.408l-1,.847-.888.12ZM9.455,5.348c-2.131,0-5.394-.018-5.427-.019V1.8H5.34A2.124,2.124,0,0,1,6.1.54,3.354,3.354,0,0,1,7.879,0,2.65,2.65,0,0,1,9.442.54,2.123,2.123,0,0,1,10.2,1.8h1.157V5.329C11.346,5.342,10.707,5.348,9.455,5.348ZM7.879,1.273A.86.86,0,0,0,7,2.148a.875.875,0,1,0,1.751,0,.86.86,0,0,0-.875-.875Z" transform="translate(0)" fill="#fff"/><path d="M7.366,19.645A1.675,1.675,0,0,1,6.22,19.2L2.15,15.366l1.106-1.079a1.984,1.984,0,0,1,.622-.4,1.145,1.145,0,0,1,.721-.047l1.541.335V8.11A1.745,1.745,0,0,1,6.714,6.79a1.97,1.97,0,0,1,1.4-.54,1.97,1.97,0,0,1,1.4.54,1.745,1.745,0,0,1,.573,1.321v3.2h.514a.412.412,0,0,1,.178.037q.079.037.178.074l2.924,1.34a1.362,1.362,0,0,1,.7.66,1.417,1.417,0,0,1,.128.94L14,18.418a1.392,1.392,0,0,1-.553.884,1.658,1.658,0,0,1-1.027.344Zm-.158-1.116h5.551l.85-4.633h0L9.993,12.2H8.907V8.11a.707.707,0,0,0-.217-.54.9.9,0,0,0-1.146,0,.707.707,0,0,0-.217.54v7.423L4.284,14.92l-.454.428Zm0,0h0Z" transform="translate(5.532 2.355)" fill="#fff"/></g></svg>