<svg xmlns="http://www.w3.org/2000/svg" width="20.326" height="18.294" viewBox="0 0 20.326 18.294"><g transform="translate(53.788 541.927)"><g transform="translate(-53.788 -541.927)"><path d="M20.294,3H4.033A2.039,2.039,0,0,0,2,5.033V19.261a2.039,2.039,0,0,0,2.033,2.033H20.294a2.039,2.039,0,0,0,2.033-2.033V5.033A2.039,2.039,0,0,0,20.294,3Zm0,16.261H4.033V5.033H20.294Z" transform="translate(-2 -3)" fill="#fff" fill-rule="evenodd"/><path d="M19.531,10.443,18.088,9l-3.222,3.222-1.433-1.443L12,12.212,14.866,15.1Z" transform="translate(-1.837 -2.902)" fill="#fff" fill-rule="evenodd"/><rect width="5.148" height="1.889" transform="translate(3.081 3.862)" fill="#fff"/><rect width="5.148" height="1.889" transform="translate(3.081 7.724)" fill="#fff"/><rect width="5.148" height="1.889" transform="translate(3.081 12.228)" fill="#fff"/></g></g></svg>