<svg xmlns="http://www.w3.org/2000/svg" width="20.351" height="18.368" viewBox="0 0 20.351 18.368"><g transform="translate(98.436 540.002)"><g transform="translate(-98.436 -540.002)"><path d="M20.315,3H4.035A2.044,2.044,0,0,0,2,5.041V19.327a2.044,2.044,0,0,0,2.035,2.041h16.28a2.044,2.044,0,0,0,2.035-2.041V5.041A2.044,2.044,0,0,0,20.315,3ZM10.14,17.286H5.053V15.245H10.14Zm0-4.082H5.053V11.164H10.14Zm0-4.082H5.053V7.082H10.14Zm4.9,6.123-2.869-2.9,1.435-1.439,1.435,1.449L18.27,9.123l1.445,1.449Z" transform="translate(-2 -3)" fill="#fff" fill-rule="evenodd"/></g></g></svg>