<svg xmlns="http://www.w3.org/2000/svg" width="21.074" height="16.587" viewBox="0 0 21.074 16.587"><g transform="translate(-590 -161)"><path d="M.664,16.587A.664.664,0,0,1,0,15.924V3.84a.664.664,0,0,1,.664-.663H5.109V.829A.829.829,0,0,1,5.938,0h9.2a.829.829,0,0,1,.83.829V3.177H20.41a.664.664,0,0,1,.664.663V7.462H.16V8.789H8.621V11a.664.664,0,0,0,.664.664h2.824A.664.664,0,0,0,12.772,11V8.789h8.3v7.134a.664.664,0,0,1-.664.664ZM6.436,2.666h8.2V1.327h-8.2Zm5.009,7.669h-1.5v-1.5h1.5v1.5h0Z" transform="translate(590 161)" fill="#fff"/></g></svg>