<svg xmlns="http://www.w3.org/2000/svg" width="21" height="16.516" viewBox="0 0 21 16.516"><g transform="translate(-590 -161)"><path d="M1.321,1.337V12.179H19.663V1.337H1.321M.661,0H20.324a.665.665,0,0,1,.661.669V12.848a.665.665,0,0,1-.661.669H.661A.665.665,0,0,1,0,12.848V.669A.665.665,0,0,1,.661,0Z" transform="translate(590 164)" fill="#fff"/><path d="M1.386,1.253V2.518H9.95V1.253H1.386M.866,0h9.6a.828.828,0,0,1,.866.783V3.771H0V.783A.828.828,0,0,1,.866,0Z" transform="translate(594.825 161)" fill="#fff"/><path d="M20.849-2.747H0V-4H20.849Z" transform="translate(590.151 172.463)" fill="#fff"/><path d="M1.253,1.253V2.667H2.667V1.253H1.253M.627,0H3.293A.627.627,0,0,1,3.92.627V3.293a.627.627,0,0,1-.627.627H.627A.627.627,0,0,1,0,3.293V.627A.627.627,0,0,1,.627,0Z" transform="translate(598.693 168.098)" fill="#fff"/></g></svg>