<svg xmlns="http://www.w3.org/2000/svg" width="32" height="21.333" viewBox="0 0 32 21.333"><g transform="translate(-344 -169)"><path d="M3.014,1.855A1.161,1.161,0,0,0,1.855,3.014v15.3a1.161,1.161,0,0,0,1.159,1.159H28.986a1.161,1.161,0,0,0,1.159-1.159V3.014a1.161,1.161,0,0,0-1.159-1.159H3.014M3.014,0H28.986A3.014,3.014,0,0,1,32,3.014v15.3a3.014,3.014,0,0,1-3.014,3.014H3.014A3.014,3.014,0,0,1,0,18.319V3.014A3.014,3.014,0,0,1,3.014,0Z" transform="translate(344 169)" fill="#fff"/><path d="M2.86,1.942a.918.918,0,1,0,.918.918.918.918,0,0,0-.918-.918M2.86,0A2.86,2.86,0,1,1,0,2.86,2.86,2.86,0,0,1,2.86,0Z" transform="translate(350.718 173.541)" fill="#fff"/><path d="M8925.109-4428.17h-13.548l.09-.88c0-.049.584-4.942,6.772-4.942,6.211,0,6.625,4.921,6.627,4.972Zm-11.61-1.595h9.754c-.4-1.043-1.544-2.634-4.829-2.634C8915.188-4432.4,8913.959-4430.808,8913.5-4429.765Z" transform="translate(-8564.726 4613.992)" fill="#fff"/><path d="M9.454-2.058H0V-4H9.454Z" transform="translate(362.903 180.671)" fill="#fff"/><path d="M9.454-2.058H0V-4H9.454Z" transform="translate(362.903 184.109)" fill="#fff"/><path d="M9.454-2.058H0V-4H9.454Z" transform="translate(362.903 187.547)" fill="#fff"/><path d="M9.454-2.058H0V-4H9.454Z" transform="translate(362.903 177.234)" fill="#fff"/></g></svg>