<svg xmlns="http://www.w3.org/2000/svg" width="22" height="14.667" viewBox="0 0 22 14.667"><g transform="translate(-344 -169)"><path d="M2.072,1.275a.8.8,0,0,0-.8.8V12.594a.8.8,0,0,0,.8.8H19.928a.8.8,0,0,0,.8-.8V2.072a.8.8,0,0,0-.8-.8H2.072M2.072,0H19.928A2.072,2.072,0,0,1,22,2.072V12.594a2.072,2.072,0,0,1-2.072,2.072H2.072A2.072,2.072,0,0,1,0,12.594V2.072A2.072,2.072,0,0,1,2.072,0Z" transform="translate(344 169)" fill="#fff"/><path d="M1.966,1.335a.631.631,0,1,0,.631.631.631.631,0,0,0-.631-.631M1.966,0A1.966,1.966,0,1,1,0,1.966,1.966,1.966,0,0,1,1.966,0Z" transform="translate(348.618 172.122)" fill="#fff"/><path d="M8920.876-4429.989h-9.314l.062-.6c0-.034.4-3.4,4.656-3.4,4.271,0,4.555,3.383,4.557,3.418Zm-7.982-1.1h6.706c-.274-.717-1.062-1.811-3.32-1.811C8914.055-4432.9,8913.21-4431.8,8912.894-4431.086Z" transform="translate(-8565.611 4610.555)" fill="#fff"/><path d="M6.5-2.665H0V-4H6.5Z" transform="translate(356.996 178.274)" fill="#fff"/><path d="M6.5-2.665H0V-4H6.5Z" transform="translate(356.996 180.637)" fill="#fff"/><path d="M6.5-2.665H0V-4H6.5Z" transform="translate(356.996 183.001)" fill="#fff"/><path d="M6.5-2.665H0V-4H6.5Z" transform="translate(356.996 175.911)" fill="#fff"/></g></svg>