<svg xmlns="http://www.w3.org/2000/svg" width="21" height="14" viewBox="0 0 21 14"><g transform="translate(-343.999 -169.369)"><path d="M19.022,14H1.979A1.981,1.981,0,0,1,0,12.022V1.978A1.981,1.981,0,0,1,1.979,0H19.022A1.98,1.98,0,0,1,21,1.978V12.022A1.98,1.98,0,0,1,19.022,14ZM6.092,6.953A5.089,5.089,0,0,0,1.737,8.826a4.36,4.36,0,0,0-.815,1.9L.853,11.4H11.2l-.045-.649A4.3,4.3,0,0,0,10.4,8.837,4.922,4.922,0,0,0,6.092,6.953Zm6.07,2.636h0v1.217h5.927V9.589Zm0-2.266h0V8.54h5.927V7.323ZM6.244,3.029A1.793,1.793,0,1,0,8.037,4.822,1.8,1.8,0,0,0,6.244,3.029Zm5.918,2.028V6.274h5.927V5.057H12.162Zm0-2.266V4.008h5.927V2.79ZM9.779,10.182H2.333C2.663,9.43,3.59,8.171,6.09,8.171a4.564,4.564,0,0,1,2.672.707,2.833,2.833,0,0,1,1.017,1.3ZM6.244,5.4a.576.576,0,1,1,.576-.576A.576.576,0,0,1,6.244,5.4Z" transform="translate(343.999 169.369)" fill="#fff"/></g></svg>