<svg xmlns="http://www.w3.org/2000/svg" width="20.672" height="14" viewBox="0 0 20.672 14"><path d="M9.235,13.75C6.816,13.75,2,14.92,2,17.25V19H16.47V17.25C16.47,14.92,11.654,13.75,9.235,13.75ZM4.419,17a10.22,10.22,0,0,1,4.816-1.25A10.22,10.22,0,0,1,14.052,17Zm4.816-5a3.564,3.564,0,0,0,3.618-3.5A3.564,3.564,0,0,0,9.235,5,3.564,3.564,0,0,0,5.618,8.5,3.564,3.564,0,0,0,9.235,12Zm0-5a1.5,1.5,0,1,1-1.55,1.5A1.524,1.524,0,0,1,9.235,7Zm7.276,6.81a4.167,4.167,0,0,1,2.026,3.44V19h4.134V17.25C22.672,15.23,19.054,14.08,16.511,13.81ZM15.437,12a3.564,3.564,0,0,0,3.618-3.5A3.564,3.564,0,0,0,15.437,5a3.66,3.66,0,0,0-1.55.35,5.317,5.317,0,0,1,0,6.3A3.66,3.66,0,0,0,15.437,12Z" transform="translate(-2 -5)" fill="#fff"/></svg>