<svg xmlns="http://www.w3.org/2000/svg" width="20" height="12.75" viewBox="0 0 20 12.75"><path d="M14.636,10.464a2.732,2.732,0,1,0-2.727-2.732A2.718,2.718,0,0,0,14.636,10.464Zm-7.273,0A2.732,2.732,0,1,0,4.636,7.732,2.718,2.718,0,0,0,7.364,10.464Zm0,1.821C5.245,12.286,1,13.351,1,15.473V17.75H13.727V15.473C13.727,13.351,9.482,12.286,7.364,12.286Zm7.273,0c-.264,0-.564.018-.882.046a3.845,3.845,0,0,1,1.791,3.142V17.75H21V15.473C21,13.351,16.755,12.286,14.636,12.286Z" transform="translate(-1 -5)" fill="#fff"/></svg>