<svg xmlns="http://www.w3.org/2000/svg" width="20.841" height="23.852" viewBox="0 0 20.841 23.852"><path d="M7.427,20.794A1.421,1.421,0,0,1,6,19.368V5.529a1.471,1.471,0,0,1,.369-1.011Q6.737,4.1,7,4.1h4.8a2.384,2.384,0,0,1,3.84-1.367,2.3,2.3,0,0,1,.82,1.367h4.8a1.421,1.421,0,0,1,1.427,1.427v5.849H21.265V5.529h-2.52V8.62h-8.8V5.529H7.427V19.368h5.945v1.427ZM14.56,5.434a.934.934,0,0,0,.951-.951.951.951,0,1,0-1.9,0,.934.934,0,0,0,.951.951Z" transform="translate(-6 -2.2)" fill="#fff"/><path d="M7.817,20.8a1.82,1.82,0,0,1-1.245-.485L2.15,16.155l1.2-1.172a2.156,2.156,0,0,1,.676-.435,1.244,1.244,0,0,1,.783-.051l1.674.364V8.271a1.9,1.9,0,0,1,.622-1.435A2.14,2.14,0,0,1,8.632,6.25a2.14,2.14,0,0,1,1.524.586,1.9,1.9,0,0,1,.622,1.435v3.477h.558a.448.448,0,0,1,.193.04q.086.04.193.081L14.9,13.325a1.48,1.48,0,0,1,.762.718,1.539,1.539,0,0,1,.14,1.021l-.773,4.407a1.513,1.513,0,0,1-.6.96,1.8,1.8,0,0,1-1.116.374Zm-.172-1.213h6.032l.923-5.033h0l-3.928-1.839H9.491V8.271a.768.768,0,0,0-.236-.586.982.982,0,0,0-1.245,0,.768.768,0,0,0-.236.586v8.065L4.468,15.67l-.494.465Zm0,0h0Z" transform="translate(5.007 3.048)" fill="#fff"/></svg>