<svg xmlns="http://www.w3.org/2000/svg" width="20.281" height="18.253" viewBox="0 0 20.281 18.253"><g transform="translate(53.788 541.927)"><g transform="translate(-53.788 -541.927)"><path d="M20.253,3H4.028A2.034,2.034,0,0,0,2,5.028v14.2a2.034,2.034,0,0,0,2.028,2.028H20.253a2.034,2.034,0,0,0,2.028-2.028V5.028A2.034,2.034,0,0,0,20.253,3Zm0,16.225H4.028V5.028H20.253Z" transform="translate(-2 -3)" fill="#fff" fill-rule="evenodd"/><path d="M19.514,10.44,18.074,9,14.86,12.215l-1.43-1.44L12,12.2l2.86,2.88Z" transform="translate(-1.859 -2.916)" fill="#fff" fill-rule="evenodd"/><rect width="5.137" height="1.885" transform="translate(3.075 3.854)" fill="#fff"/><rect width="5.137" height="1.885" transform="translate(3.075 7.707)" fill="#fff"/><rect width="5.137" height="1.885" transform="translate(3.075 12.201)" fill="#fff"/></g></g></svg>