<svg xmlns="http://www.w3.org/2000/svg" width="23.355" height="18.368" viewBox="0 0 23.355 18.368"><g transform="translate(-590 -161)"><path d="M1.469,1.487V13.544h20.4V1.487H1.469M.735,0H22.6a.739.739,0,0,1,.735.744V14.288a.739.739,0,0,1-.735.744H.735A.739.739,0,0,1,0,14.288V.744A.739.739,0,0,1,.735,0Z" transform="translate(590 164.336)" fill="#fff"/><path d="M1.541,1.394V2.8h9.524V1.394H1.541M.963,0h10.68a.921.921,0,0,1,.963.871V4.194H0V.871A.921.921,0,0,1,.963,0Z" transform="translate(595.366 161)" fill="#fff"/><path d="M23.187-2.606H0V-4H23.187Z" transform="translate(590.168 173.3)" fill="#fff"/><path d="M1.394,1.394V2.966H2.966V1.394H1.394M.7,0H3.663a.7.7,0,0,1,.7.7V3.663a.7.7,0,0,1-.7.7H.7a.7.7,0,0,1-.7-.7V.7A.7.7,0,0,1,.7,0Z" transform="translate(599.667 168.894)" fill="#fff"/></g></svg>