<svg xmlns="http://www.w3.org/2000/svg" width="26.216" height="17.477" viewBox="0 0 26.216 17.477"><g transform="translate(-344 -169)"><path d="M2.47,1.52a.951.951,0,0,0-.95.95V15.008a.951.951,0,0,0,.95.95H23.747a.951.951,0,0,0,.95-.95V2.47a.951.951,0,0,0-.95-.95H2.47M2.47,0H23.747a2.47,2.47,0,0,1,2.47,2.47V15.008a2.47,2.47,0,0,1-2.47,2.47H2.47A2.47,2.47,0,0,1,0,15.008V2.47A2.47,2.47,0,0,1,2.47,0Z" transform="translate(344 169)" fill="#fff"/><path d="M2.343,1.591a.752.752,0,1,0,.752.752.752.752,0,0,0-.752-.752M2.343,0A2.343,2.343,0,1,1,0,2.343,2.343,2.343,0,0,1,2.343,0Z" transform="translate(349.503 172.721)" fill="#fff"/><path d="M8922.662-4429.223h-11.1l.074-.721c.006-.041.479-4.049,5.549-4.049,5.09,0,5.428,4.031,5.43,4.073Zm-9.514-1.307h7.992c-.328-.854-1.266-2.157-3.957-2.157C8914.533-4432.688,8913.525-4431.384,8913.148-4430.529Z" transform="translate(-8565.236 4612.004)" fill="#fff"/><path d="M7.745-2.409H0V-4H7.745Z" transform="translate(359.486 179.285)" fill="#fff"/><path d="M7.745-2.409H0V-4H7.745Z" transform="translate(359.486 182.101)" fill="#fff"/><path d="M7.745-2.409H0V-4H7.745Z" transform="translate(359.486 184.917)" fill="#fff"/><path d="M7.745-2.409H0V-4H7.745Z" transform="translate(359.486 176.468)" fill="#fff"/></g></svg>