<svg xmlns="http://www.w3.org/2000/svg" width="27.121" height="18.368" viewBox="0 0 27.121 18.368"><path d="M11.492,16.48C8.319,16.48,2,18.015,2,21.072v2.3H20.985v-2.3C20.985,18.015,14.666,16.48,11.492,16.48ZM5.173,20.744a13.409,13.409,0,0,1,6.319-1.64,13.409,13.409,0,0,1,6.319,1.64Zm6.319-6.56a4.676,4.676,0,0,0,4.746-4.592A4.676,4.676,0,0,0,11.492,5,4.676,4.676,0,0,0,6.746,9.592,4.676,4.676,0,0,0,11.492,14.184Zm0-6.56A1.969,1.969,0,1,1,9.458,9.592,2,2,0,0,1,11.492,7.624Zm9.547,8.935A5.467,5.467,0,0,1,23.7,21.072v2.3h5.424v-2.3C29.121,18.422,24.375,16.913,21.039,16.559Zm-1.41-2.375a4.676,4.676,0,0,0,4.746-4.592A4.676,4.676,0,0,0,19.629,5a4.8,4.8,0,0,0-2.034.459,6.976,6.976,0,0,1,0,8.266A4.8,4.8,0,0,0,19.629,14.184Z" transform="translate(-2 -5)" fill="#fff"/></svg>